<?xml version="1.0" encoding="utf-8"?>
<!-- Generator: Adobe Illustrator 16.0.0, SVG Export Plug-In . SVG Version: 6.00 Build 0)  -->
<!DOCTYPE svg PUBLIC "-//W3C//DTD SVG 1.1//EN" "http://www.w3.org/Graphics/SVG/1.1/DTD/svg11.dtd">
<svg version="1.1" id="Layer_1" xmlns="http://www.w3.org/2000/svg" xmlns:xlink="http://www.w3.org/1999/xlink" x="0px" y="0px"
	 width="150px" height="100%" viewBox="0 0 98.625 50" enable-background="new 0 0 98.625 50" xml:space="preserve">
<g>
	<g>
		<path fill="#fff" d="M11.002,24.476c-1.864,0-3.381-1.517-3.381-3.381s1.517-3.381,3.381-3.381s3.381,1.517,3.381,3.381
			S12.867,24.476,11.002,24.476 M11.002,19.377c-0.947,0-1.718,0.771-1.718,1.718c0,0.947,0.771,1.718,1.718,1.718
			s1.718-0.771,1.718-1.718C12.72,20.147,11.95,19.377,11.002,19.377"/>
	</g>
	<g>
		<path fill="#fff" d="M12.332,11.048c0,0.735-0.596,1.33-1.33,1.33s-1.33-0.595-1.33-1.33c0-0.734,0.596-1.33,1.33-1.33
			S12.332,10.314,12.332,11.048"/>
	</g>
	<g>
		<path fill="#fff" d="M18.651,21.095c0,0.734-0.595,1.33-1.329,1.33c-0.735,0-1.33-0.595-1.33-1.33
			c0-0.735,0.595-1.33,1.33-1.33C18.056,19.765,18.651,20.36,18.651,21.095"/>
	</g>
	<g>
		<path fill="#fff" d="M19.921,23.888c-2.052,6.825-7.189,12.508-8.919,14.284c-1.733-1.779-6.868-7.463-8.918-14.284
			l-0.007-0.023l-0.006-0.018c-0.273-0.888-0.412-1.814-0.412-2.752c0-4.288,2.903-7.91,6.847-9.004l-0.188-1.671
			c-4.776,1.202-8.322,5.532-8.322,10.675c0,1.104,0.163,2.194,0.483,3.231l0.012,0.041c2.465,8.2,9.121,14.792,9.873,15.516
			c0.045,0.045,0.069,0.066,0.069,0.066l0.191,0.182c0.215,0.201,0.55,0.199,0.764-0.004l0.254-0.244
			c0.75-0.725,7.406-7.315,9.871-15.513l0.011-0.036c0.322-1.047,0.485-2.137,0.485-3.239c0-5.144-3.546-9.474-8.322-10.675
			L13.5,12.09c3.943,1.095,6.847,4.716,6.847,9.004c0,0.937-0.139,1.863-0.412,2.752L19.921,23.888z"/>
	</g>
	<g>
		<path fill="#fff" d="M11.002,26.582c-3.026,0-5.488-2.461-5.488-5.487c0-3.026,2.461-5.488,5.488-5.488
			c2.153,0,4.019,1.247,4.917,3.055l1.731-0.195c-1.049-2.646-3.632-4.523-6.648-4.523c-3.943,0-7.151,3.208-7.151,7.151
			s3.208,7.151,7.151,7.151c3.016,0,5.599-1.877,6.648-4.523l-1.731-0.195C15.021,25.335,13.155,26.582,11.002,26.582"/>
	</g>
</g>
<text transform="matrix(1 0 0 1 297.6406 420.9453)" font-family="'MyriadPro-Regular'" font-size="12">event-experiences</text>
<g>
	<path fill="#fff" d="M32.742,13.041h8.163c2.231,0,4.039,0.65,5.14,1.751c0.819,0.819,1.271,1.864,1.271,3.106v0.057
		c0,2.683-1.751,4.039-3.361,4.688c2.373,0.622,4.462,1.977,4.462,4.717v0.057c0,3.305-2.824,5.395-7.089,5.395h-8.586V13.041z
		 M45.818,18.04c0-2.175-1.779-3.644-4.942-3.644H34.21v7.767h6.524c2.965,0,5.083-1.44,5.083-4.067V18.04z M40.904,23.519H34.21
		v7.937h7.174c3.389,0,5.536-1.554,5.536-4.039V27.36C46.92,24.932,44.802,23.519,40.904,23.519z"/>
	<path fill="#fff" d="M49.854,28.632v-0.057c0-2.994,2.57-4.689,6.298-4.689c2.005,0,3.389,0.254,4.773,0.622v-0.622
		c0-2.909-1.779-4.406-4.745-4.406c-1.751,0-3.191,0.48-4.519,1.158l-0.508-1.214c1.582-0.734,3.135-1.243,5.112-1.243
		c1.949,0,3.502,0.537,4.547,1.582c0.96,0.96,1.469,2.288,1.469,4.067v8.981h-1.355v-2.4c-0.989,1.384-2.768,2.739-5.508,2.739
		C52.735,33.15,49.854,31.625,49.854,28.632z M60.954,27.417v-1.639c-1.215-0.31-2.825-0.649-4.886-0.649
		c-3.05,0-4.745,1.355-4.745,3.361v0.057c0,2.09,1.977,3.305,4.18,3.305C58.44,31.852,60.954,30.044,60.954,27.417z"/>
	<path fill="#fff" d="M66.855,29.705v3.106h-1.384V12.193h1.384v9.434c1.243-1.893,3.079-3.559,5.931-3.559
		c3.474,0,7.004,2.796,7.004,7.484v0.057c0,4.688-3.53,7.541-7.004,7.541C69.905,33.15,68.041,31.513,66.855,29.705z M78.294,25.666
		v-0.057c0-3.785-2.627-6.214-5.649-6.214c-2.994,0-5.875,2.514-5.875,6.186v0.057c0,3.7,2.881,6.186,5.875,6.186
		C75.78,31.823,78.294,29.535,78.294,25.666z"/>
	<path fill="#fff" d="M81.341,25.638v-0.057c0-4.18,2.938-7.513,6.835-7.513c4.039,0,6.609,3.276,6.609,7.541
		c0,0.254,0,0.339-0.028,0.564H82.81c0.254,3.587,2.824,5.678,5.649,5.678c2.231,0,3.756-0.989,4.942-2.26l0.96,0.848
		c-1.469,1.581-3.191,2.711-5.959,2.711C84.618,33.15,81.341,30.128,81.341,25.638z M93.289,24.932
		c-0.198-2.909-1.864-5.592-5.169-5.592c-2.853,0-5.056,2.4-5.31,5.592H93.289z"/>
	<path fill="#fff" d="M97.241,12.193h1.384v20.618h-1.384V12.193z"/>
</g>
</svg>
